<svg xmlns="http://www.w3.org/2000/svg" version="1.1" xmlns:xlink="http://www.w3.org/1999/xlink" width="1500" height="417" viewBox="0 0 1500 417"><svg xml:space="preserve" width="1500" height="417" data-version="2" data-id="lg_5BpHGbuE4Q5S4qJJuw" viewBox="0 0 631 417" x="0" y="0"><rect width="100%" height="100%" fill="transparent"></rect><path fill="#006668" d="M345.19 226.202q-11.52 0-18.18 7.69-6.66 7.7-6.66 21.21 0 13.51 6.42 20.97 6.43 7.46 18.32 7.46 7.43 0 16.72-2.6v7.11q-7.27 2.71-17.94 2.71-15.45 0-23.84-9.35-8.39-9.45-8.39-26.64-.05-7.97 2.31-14.68 2.36-6.72 6.72-11.39 4.35-4.67 10.67-7.25 6.31-2.57 13.96-2.52 11.09 0 19.21 4.04l-3.45 6.95q-7.8-3.71-15.87-3.71"></path><rect width="52.88" height="71.84" x="-26.44" y="-35.92" fill="none" rx="0" ry="0" transform="translate(338.57 255.33)"></rect><path fill="#006668" d="M385.16 289.792h-8.12v-69.86h8.12Z"></path><rect width="8.12" height="69.86" x="-4.06" y="-34.93" fill="none" rx="0" ry="0" transform="translate(381.6 255.36)"></rect><path fill="#006668" d="M412.45 227.052v26.7h11.15q8.54 0 12.58-3.37 4.03-3.38 4.03-10.28 0-6.9-4.08-9.98-4.09-3.07-13.12-3.07Zm0 33.7v29.04h-8.12v-69.86h19.16q12.79 0 18.95 4.91t6.16 14.84q0 13.91-14.01 18.74l18.95 31.37h-9.61l-16.94-29.04Z"></path><rect width="49.21" height="69.86" x="-24.61" y="-34.93" fill="none" rx="0" ry="0" transform="translate(429.43 255.36)"></rect><path fill="#006668" d="M494.68 226.202q-11.52 0-18.18 7.69-6.67 7.7-6.67 21.21 0 13.51 6.43 20.97 6.42 7.46 18.31 7.46 7.43 0 16.72-2.6v7.11q-7.27 2.71-17.94 2.71-15.45 0-23.84-9.35-8.38-9.45-8.38-26.64-.06-7.97 2.31-14.68 2.36-6.72 6.71-11.39 4.35-4.67 10.67-7.25 6.32-2.57 13.96-2.52 11.1 0 19.22 4.04l-3.45 6.95q-7.8-3.71-15.87-3.71"></path><rect width="52.88" height="71.84" x="-26.44" y="-35.92" fill="none" rx="0" ry="0" transform="translate(488.06 255.33)"></rect><path fill="#006668" d="M565.44 289.792h-38.91v-69.86h8.12v62.48h30.79Z"></path><rect width="38.91" height="69.86" x="-19.45" y="-34.93" fill="none" rx="0" ry="0" transform="translate(546.48 255.36)"></rect><path fill="#006668" d="M616.24 282.522v7.27h-38.91v-69.86h38.91v7.22h-30.79v22.51h28.93v7.17h-28.93v25.69Z"></path><rect width="38.91" height="69.86" x="-19.45" y="-34.93" fill="none" rx="0" ry="0" transform="translate(597.28 255.36)"></rect><rect width="318.18" height="207.59" x="-159.09" y="-103.8" fill="none" rx="0" ry="0" transform="translate(465.29 246.9)"></rect><circle r="2.5" fill="#006668" transform="translate(210.56 15.95)scale(4.8137)"></circle><path fill="#006668" d="M90.358 42.98a12.116 12.116 0 0 0-2.647 16.848 12.058 12.058 0 0 0 16.848 2.647 12.063 12.063 0 0 0-14.2-19.495m179.696-5.68c5.054 0 9.82-3.226 11.457-8.328 2.07-6.354-1.445-13.141-7.75-15.163-6.306-2.07-13.094 1.396-15.159 7.75-2.022 6.306 1.444 13.093 7.745 15.163 1.204.385 2.45.578 3.707.578m-119 .048a12.66 12.66 0 0 0 3.755-.578 12.034 12.034 0 0 0 7.707-15.163 12.034 12.034 0 0 0-15.163-7.702 11.99 11.99 0 0 0-7.702 15.163 12 12 0 0 0 11.403 8.28m-103.25 67.68c2.114 1.589 4.622 2.311 7.077 2.311a12.025 12.025 0 0 0 7.076-21.758 12.054 12.054 0 0 0-16.8 2.648c-3.9 5.391-2.744 12.9 2.647 16.8m-16.559 32.493c-6.306-2.022-13.093 1.396-15.163 7.75a12.034 12.034 0 0 0 7.707 15.163 12.097 12.097 0 0 0 15.21-7.75h-.053a12.034 12.034 0 0 0-7.702-15.163m299.559-94.687a12.054 12.054 0 0 0-16.8 2.648 12.073 12.073 0 0 0 2.648 16.848v-.048c2.118 1.588 4.62 2.31 7.076 2.31 3.711 0 7.365-1.733 9.728-4.958a12.058 12.058 0 0 0-2.652-16.8m28.445 42.555a12.025 12.025 0 0 0 7.124 21.757c2.455 0 4.91-.77 7.076-2.31 5.344-3.9 6.547-11.457 2.6-16.8v-.048a12.044 12.044 0 0 0-16.8-2.6m-42.404 269.087a12.116 12.116 0 0 0-2.647 16.848c2.358 3.225 6.017 4.91 9.771 4.91 2.455 0 4.91-.722 7.076-2.262a12.13 12.13 0 0 0 2.648-16.848 12.13 12.13 0 0 0-16.848-2.648M62.15 331.563c5.343-3.899 6.547-11.456 2.6-16.8a12.01 12.01 0 1 0-19.4 14.153v.048c2.311 3.225 6.018 4.91 9.729 4.91 2.45 0 4.9-.722 7.071-2.31m208.194 72.108a11.36 11.36 0 0 0 3.711-.625 11.996 11.996 0 0 0 7.702-15.164 12.01 12.01 0 0 0-15.163-7.701 12.015 12.015 0 0 0-7.702 15.163 11.99 11.99 0 0 0 11.452 8.327m89.098-72.302a12.068 12.068 0 0 0 7.08 2.311 12.05 12.05 0 0 0 9.724-4.958 12.111 12.111 0 0 0-2.647-16.848 12.02 12.02 0 0 0-16.8 2.696c-3.947 5.343-2.744 12.9 2.643 16.8M27.588 280.297c1.251 0 2.503-.192 3.755-.577a12.034 12.034 0 0 0 7.701-15.164v-.048a12.073 12.073 0 0 0-15.163-7.702 12.068 12.068 0 0 0-7.702 15.212 11.996 11.996 0 0 0 11.409 8.28m60.364 77.02a12.005 12.005 0 0 0 2.647 16.8 11.972 11.972 0 0 0 16.805-2.696c3.899-5.344 2.695-12.901-2.648-16.8a12.025 12.025 0 0 0-16.804 2.695m59.686 45.826a12.044 12.044 0 0 0 15.168-7.75c2.021-6.306-1.444-13.093-7.75-15.163a12.054 12.054 0 0 0-15.159 7.75 11.972 11.972 0 0 0 7.74 15.163"></path><circle r="2.5" fill="#006668" transform="translate(210.85 401.05)scale(4.8137)"></circle><path fill="#006668" d="M6.119 208.48c0 3.178 1.3 6.258 3.509 8.52 2.267 2.215 5.343 3.515 8.525 3.515 3.182 0 6.258-1.3 8.52-3.514 2.215-2.263 3.514-5.343 3.514-8.52 0-3.177-1.304-6.258-3.514-8.52-4.476-4.477-12.515-4.477-17.04 0a12.25 12.25 0 0 0-3.514 8.52"></path><path fill="#c90168" d="M254.852 237.377a6.17 6.17 0 0 0-6.17-6.17h-68.075a6.17 6.17 0 0 0-6.17 6.17v55.035a6.17 6.17 0 0 0 6.17 6.17h68.075a6.17 6.17 0 0 0 6.17-6.17zm13.04-49.988a6.17 6.17 0 0 0-6.17-6.17h-81.115a6.17 6.17 0 0 0-6.17 6.17v26.78a6.17 6.17 0 0 0 6.17 6.17h81.116a6.17 6.17 0 0 0 6.17-6.17zm-108.67 105.023a6.17 6.17 0 0 1-6.17 6.17h-24.607a6.17 6.17 0 0 1-6.17-6.17v-55.035a6.17 6.17 0 0 1 6.17-6.17h24.608a6.17 6.17 0 0 1 6.17 6.17zm0-78.245a6.172 6.172 0 0 1-6.17 6.173h-37.647a6.172 6.172 0 0 1-6.17-6.173V187.39a6.17 6.17 0 0 1 6.17-6.17h37.648a6.17 6.17 0 0 1 6.17 6.17zm89.59-82.7c-3.596-6.231-11.08-9.95-20.006-9.95-20.325 0-34.728 18.544-41.803 30.25-7.087-11.693-21.486-30.132-41.766-30.132-12.862 0-22.195 7.74-22.195 18.239 0 18.622 21.028 30.77 63.298 30.77s64.668-15.617 64.668-30.616c-.005-2.982-.659-5.9-2.195-8.56m-103.797 18.546c-7.105-3.652-9.634-7.75-9.634-10.372 0-3.351 4.142-5.783 9.854-5.783 13.757 0 24.644 13.67 30.56 23.188-15.848-1.015-25.36-4.245-30.78-7.033m92.691-7.253c-3.58 6.196-15.774 12.764-39.399 14.284 5.964-9.515 16.9-23.184 30.497-23.184 5.262 0 8.263 1.952 9.32 3.78.84 1.456.7 3.18-.418 5.12m105.333 27.654v-7.22h23.73v33.97q-5.73 1.8-11.47 2.68-5.73.88-13.11.88-15.92 0-24.73-9.43-8.82-9.42-8.82-26.46-.1-10.83 4.33-19.03 4.43-8.2 12.71-12.63 8.28-4.44 19.22-4.28 11.2 0 20.81 4.14l-3.13 7.17q-9.4-4.03-18.21-4.03-12.79 0-19.96 7.59-7.17 7.59-7.17 21.42 0 13.82 6.93 21.12 6.93 7.3 20.3 7.3 7.12 0 14.18-1.7v-21.49Z"></path><rect width="58.15" height="71.88" x="-29.08" y="-35.94" fill="none" rx="0" ry="0" transform="translate(338.2 165.29)"></rect><path fill="#c90168" d="M391.67 199.765h-8.13v-69.86h8.13Z"></path><rect width="8.13" height="69.86" x="-4.07" y="-34.93" fill="none" rx="0" ry="0" transform="translate(388.1 165.34)"></rect><path fill="#c90168" d="M418.95 169.935v29.83h-8.12v-69.86h38.91v7.22h-30.79v25.59h28.93v7.22Z"></path><rect width="38.91" height="69.86" x="-19.45" y="-34.93" fill="none" rx="0" ry="0" transform="translate(430.78 165.34)"></rect><path fill="#c90168" d="M482.81 137.125v62.64h-8.12v-62.64h-22.14v-7.22h52.4v7.22Z"></path><rect width="52.4" height="69.86" x="-26.2" y="-34.93" fill="none" rx="0" ry="0" transform="translate(479.25 165.34)"></rect><path fill="#c90168" d="M554.85 181.186q0 9.24-6.67 14.39-6.66 5.15-18.63 5.15-11.97 0-18.66-3.19v-7.86q9.45 3.93 19.43 3.93 8.02 0 12.18-3.02 4.17-3.03 4.17-8.66 0-3.61-1.46-5.89t-4.91-4.3q-3.45-2.02-10.35-4.46-9.71-3.45-13.93-8.22-4.22-4.78-4.22-12.69 0-7.91 6.05-12.69 6.15-4.78 16.32-4.78t18.92 3.83l-2.54 7.11q-8.66-3.66-16.78-3.66-6.47 0-10.11 2.78-3.64 2.79-3.64 7.67 0 3.72 1.3 5.95t4.54 4.3q3.35 2.02 9.77 4.25 11.04 3.92 15.08 8.44 4.14 4.45 4.14 11.62"></path><rect width="43.96" height="71.83" x="-21.98" y="-35.91" fill="none" rx="0" ry="0" transform="translate(533.37 165.31)"></rect><rect width="318.18" height="207.59" x="-159.09" y="-103.8" fill="none" rx="0" ry="0" transform="translate(462.29 156.87)"></rect></svg></svg>